<?xml version="1.0" standalone="no"?>
<!DOCTYPE svg PUBLIC "-//W3C//DTD SVG 20010904//EN"
 "http://www.w3.org/TR/2001/REC-SVG-20010904/DTD/svg10.dtd">
<svg version="1.0" xmlns="http://www.w3.org/2000/svg"
 width="512.000000pt" height="512.000000pt" viewBox="0 0 512.000000 512.000000"
 preserveAspectRatio="xMidYMid meet">
<metadata>
Created by potrace 1.11, written by Peter Selinger 2001-2013
</metadata>
<g transform="translate(0.000000,512.000000) scale(0.100000,-0.100000)"
fill="#000000" stroke="none">
<path d="M2474 4508 c-66 -49 -202 -201 -297 -333 -163 -224 -283 -470 -327
-667 -7 -32 -14 -58 -16 -58 -1 0 -35 15 -76 33 -136 63 -313 119 -414 132
-21 3 -68 9 -104 14 -36 5 -165 9 -288 10 -202 1 -227 -1 -261 -19 -74 -37
-76 -45 -78 -315 -1 -132 3 -269 8 -305 5 -36 12 -82 15 -102 7 -52 41 -181
65 -251 12 -32 19 -60 17 -61 -1 -1 -43 -24 -93 -51 -167 -89 -375 -241 -521
-382 -76 -72 -102 -113 -99 -153 1 -14 2 -37 3 -52 3 -47 187 -220 380 -357
256 -181 516 -294 776 -336 80 -12 328 -13 376 -1 14 4 41 9 60 12 56 9 239
72 303 105 33 16 61 28 64 26 2 -3 6 -17 9 -33 20 -119 100 -296 194 -430 38
-54 144 -178 196 -228 116 -113 137 -126 202 -126 49 0 81 21 182 122 220 218
345 423 390 640 6 32 14 58 16 58 3 0 22 -9 44 -20 70 -36 191 -80 289 -106
78 -21 125 -26 251 -30 85 -2 175 1 200 5 25 5 63 12 85 15 295 46 700 274
981 551 89 87 103 106 109 142 12 75 -1 101 -94 193 -147 146 -346 295 -516
385 -49 27 -92 50 -94 51 -2 2 9 38 23 80 66 190 83 315 85 626 2 211 1 230
-19 267 -13 27 -34 48 -62 62 -40 20 -51 21 -297 16 -141 -3 -267 -7 -281 -10
-14 -3 -47 -9 -75 -13 -130 -19 -339 -86 -440 -140 -25 -13 -50 -24 -54 -24
-4 0 -14 26 -21 58 -29 131 -110 328 -197 478 -117 199 -367 500 -449 539 -48
23 -105 16 -150 -17z"/>
</g>
</svg>
